<svg data-v-423bf9ae="" xmlns="http://www.w3.org/2000/svg" viewBox="0 0 305.72521292964035 60" class="font"><!----><!----><!----><g data-v-423bf9ae="" id="476000c8-c2ec-4bbc-b274-3d03c36d2e58" fill="white" transform="matrix(5.725191089769513,0,0,5.725191089769513,-3.6641223173860453,-20.78244335738514)"><path d="M4.86 4.20Q5.81 4.20 6.54 4.59Q7.28 4.98 7.68 5.69Q8.08 6.40 8.08 7.32L8.08 7.32Q8.08 8.23 7.67 8.93Q7.25 9.63 6.50 10.01Q5.74 10.39 4.75 10.39L4.75 10.39L3.07 10.39Q2.97 10.39 2.97 10.49L2.97 10.49L2.97 13.75Q2.97 13.86 2.90 13.93Q2.83 14 2.72 14L2.72 14L0.90 14Q0.78 14 0.71 13.93Q0.64 13.86 0.64 13.75L0.64 13.75L0.64 4.45Q0.64 4.34 0.71 4.27Q0.78 4.20 0.90 4.20L0.90 4.20L4.86 4.20ZM4.48 8.54Q5.05 8.54 5.41 8.22Q5.77 7.90 5.77 7.38L5.77 7.38Q5.77 6.85 5.41 6.52Q5.05 6.19 4.48 6.19L4.48 6.19L3.07 6.19Q2.97 6.19 2.97 6.29L2.97 6.29L2.97 8.44Q2.97 8.54 3.07 8.54L3.07 8.54L4.48 8.54ZM12.81 6.66Q13.26 6.66 13.54 6.82L13.54 6.82Q13.72 6.92 13.68 7.13L13.68 7.13L13.37 8.92Q13.36 9.10 13.19 9.10L13.19 9.10Q13.12 9.10 13.08 9.09L13.08 9.09Q12.91 9.04 12.66 9.04L12.66 9.04Q12.43 9.04 12.32 9.07L12.32 9.07Q11.89 9.13 11.59 9.41Q11.28 9.69 11.28 10.15L11.28 10.15L11.28 13.75Q11.28 13.86 11.21 13.93Q11.14 14 11.03 14L11.03 14L9.21 14Q9.10 14 9.03 13.93Q8.96 13.86 8.96 13.75L8.96 13.75L8.96 7.01Q8.96 6.90 9.03 6.83Q9.10 6.76 9.21 6.76L9.21 6.76L11.03 6.76Q11.14 6.76 11.21 6.83Q11.28 6.90 11.28 7.01L11.28 7.01L11.28 7.32Q11.28 7.39 11.32 7.41Q11.35 7.42 11.38 7.36L11.38 7.36Q11.94 6.66 12.81 6.66L12.81 6.66ZM15.69 6.29Q15.08 6.29 14.70 5.91Q14.32 5.54 14.32 4.94L14.32 4.94Q14.32 4.35 14.70 3.99Q15.08 3.63 15.69 3.63L15.69 3.63Q16.31 3.63 16.69 3.99Q17.07 4.35 17.07 4.94L17.07 4.94Q17.07 5.54 16.69 5.91Q16.31 6.29 15.69 6.29L15.69 6.29ZM14.78 14Q14.67 14 14.60 13.93Q14.53 13.86 14.53 13.75L14.53 13.75L14.53 7.01Q14.53 6.90 14.60 6.83Q14.67 6.76 14.78 6.76L14.78 6.76L16.60 6.76Q16.72 6.76 16.79 6.83Q16.86 6.90 16.86 7.01L16.86 7.01L16.86 13.75Q16.86 13.86 16.79 13.93Q16.72 14 16.60 14L16.60 14L14.78 14ZM21.46 14.11Q20.31 14.11 19.45 13.54Q18.59 12.96 18.23 11.96L18.23 11.96Q17.96 11.28 17.96 10.35L17.96 10.35Q17.96 9.41 18.23 8.74L18.23 8.74Q18.58 7.76 19.45 7.20Q20.31 6.65 21.46 6.65L21.46 6.65Q22.62 6.65 23.51 7.22Q24.39 7.80 24.70 8.68L24.70 8.68Q24.78 8.90 24.81 9.14L24.81 9.14L24.81 9.20Q24.81 9.38 24.58 9.42L24.58 9.42L22.81 9.69L22.74 9.70Q22.55 9.70 22.53 9.53L22.53 9.53L22.47 9.34Q22.39 9.03 22.11 8.83Q21.83 8.64 21.45 8.64L21.45 8.64Q20.71 8.64 20.47 9.30L20.47 9.30Q20.31 9.69 20.31 10.36L20.31 10.36Q20.31 10.96 20.45 11.41L20.45 11.41Q20.72 12.12 21.45 12.12L21.45 12.12Q21.81 12.12 22.07 11.94Q22.33 11.76 22.46 11.41L22.46 11.41L22.47 11.34L22.47 11.34Q22.48 11.27 22.58 11.19Q22.67 11.12 22.76 11.13L22.76 11.13L24.56 11.41Q24.81 11.45 24.77 11.69L24.77 11.69Q24.74 11.91 24.70 12.04L24.70 12.04Q24.36 13.02 23.49 13.57Q22.61 14.11 21.46 14.11L21.46 14.11ZM29.27 12.14Q29.71 12.14 30.08 12.00Q30.45 11.87 30.70 11.65L30.70 11.65Q30.79 11.55 30.88 11.55L30.88 11.55Q30.97 11.55 31.05 11.65L31.05 11.65L31.92 12.68Q32.00 12.78 32.00 12.87L32.00 12.87Q32.00 12.96 31.92 13.05L31.92 13.05Q31.44 13.55 30.72 13.83Q29.99 14.11 29.16 14.11L29.16 14.11Q28.21 14.11 27.48 13.77Q26.74 13.43 26.26 12.81L26.26 12.81Q25.49 11.83 25.49 10.32L25.49 10.32Q25.49 9.65 25.65 9.06L25.65 9.06Q25.96 7.97 26.85 7.30Q27.75 6.64 28.95 6.64L28.95 6.64Q30.35 6.64 31.21 7.50Q32.07 8.37 32.34 9.93L32.34 9.93Q32.40 10.32 32.42 10.78L32.42 10.78Q32.42 11.03 32.17 11.03L32.17 11.03L27.94 11.03Q27.90 11.03 27.87 11.06Q27.83 11.09 27.85 11.14L27.85 11.14L27.93 11.42Q28.07 11.76 28.42 11.95Q28.77 12.14 29.27 12.14L29.27 12.14ZM28.91 8.64Q28.20 8.64 27.94 9.32L27.94 9.32Q27.89 9.46 27.87 9.53L27.87 9.53L27.87 9.56Q27.87 9.65 27.97 9.65L27.97 9.65L29.89 9.65Q29.95 9.65 29.97 9.61Q29.99 9.58 29.97 9.53L29.97 9.53L29.92 9.35Q29.81 9.02 29.55 8.83Q29.30 8.64 28.91 8.64L28.91 8.64ZM39.61 8.88Q39.55 8.90 39.55 8.95Q39.55 8.99 39.61 9.02L39.61 9.02Q40.85 9.67 40.85 11.23L40.85 11.23Q40.85 12.63 39.89 13.31Q38.92 14 37.35 14L37.35 14L33.71 14Q33.60 14 33.53 13.93Q33.46 13.86 33.46 13.75L33.46 13.75L33.46 4.45Q33.46 4.34 33.53 4.27Q33.60 4.20 33.71 4.20L33.71 4.20L37.24 4.20Q38.95 4.20 39.82 4.84Q40.70 5.49 40.70 6.93L40.70 6.93Q40.70 8.30 39.61 8.88L39.61 8.88ZM35.88 6.19Q35.78 6.19 35.78 6.29L35.78 6.29L35.78 7.99Q35.78 8.09 35.88 8.09L35.88 8.09L37.24 8.09Q37.81 8.09 38.12 7.85Q38.43 7.60 38.43 7.15L38.43 7.15Q38.43 6.69 38.12 6.44Q37.81 6.19 37.24 6.19L37.24 6.19L35.88 6.19ZM37.35 12.00Q37.91 12.00 38.22 11.74Q38.53 11.48 38.53 10.99L38.53 10.99Q38.53 10.51 38.23 10.25Q37.93 10.00 37.35 10.00L37.35 10.00L35.88 10.00Q35.78 10.00 35.78 10.09L35.78 10.09L35.78 11.90Q35.78 12.00 35.88 12.00L35.88 12.00L37.35 12.00ZM45.32 14.11Q44.06 14.11 43.18 13.44Q42.31 12.77 42 11.62L42 11.62Q41.83 11.05 41.83 10.36L41.83 10.36Q41.83 9.66 42.01 9.00L42.01 9.00Q42.34 7.90 43.21 7.27Q44.09 6.65 45.33 6.65L45.33 6.65Q46.56 6.65 47.42 7.27Q48.27 7.90 48.61 8.99L48.61 8.99Q48.80 9.62 48.80 10.33L48.80 10.33Q48.80 10.98 48.65 11.56L48.65 11.56Q48.36 12.74 47.47 13.43Q46.59 14.11 45.32 14.11L45.32 14.11ZM45.32 12.12Q45.72 12.12 46.00 11.87Q46.27 11.61 46.38 11.16L46.38 11.16Q46.47 10.79 46.47 10.36L46.47 10.36Q46.47 9.94 46.37 9.55L46.37 9.55Q46.26 9.11 45.99 8.88Q45.72 8.64 45.32 8.64L45.32 8.64Q44.90 8.64 44.64 8.88Q44.38 9.11 44.27 9.55L44.27 9.55Q44.17 9.86 44.17 10.36L44.17 10.36Q44.17 10.79 44.25 11.16L44.25 11.16Q44.38 11.61 44.65 11.87Q44.91 12.12 45.32 12.12L45.32 12.12ZM54.04 8.37Q54.04 8.48 53.97 8.55Q53.90 8.62 53.79 8.62L53.79 8.62L52.63 8.62Q52.53 8.62 52.53 8.72L52.53 8.72L52.53 11.17Q52.53 11.97 53.17 11.97L53.17 11.97L53.61 11.97Q53.72 11.97 53.79 12.04Q53.86 12.11 53.86 12.22L53.86 12.22L53.86 13.69Q53.86 13.92 53.62 13.94L53.62 13.94Q52.98 13.97 52.71 13.97L52.71 13.97Q51.49 13.97 50.90 13.58Q50.32 13.19 50.30 12.12L50.30 12.12L50.30 8.72Q50.30 8.62 50.20 8.62L50.20 8.62L49.52 8.62Q49.41 8.62 49.34 8.55Q49.27 8.48 49.27 8.37L49.27 8.37L49.27 7.01Q49.27 6.90 49.34 6.83Q49.41 6.76 49.52 6.76L49.52 6.76L50.20 6.76Q50.30 6.76 50.30 6.66L50.30 6.66L50.30 5.08Q50.30 4.97 50.37 4.90Q50.44 4.83 50.55 4.83L50.55 4.83L52.28 4.83Q52.39 4.83 52.46 4.90Q52.53 4.97 52.53 5.08L52.53 5.08L52.53 6.66Q52.53 6.76 52.63 6.76L52.63 6.76L53.79 6.76Q53.90 6.76 53.97 6.83Q54.04 6.90 54.04 7.01L54.04 7.01L54.04 8.37Z"></path></g><!----><!----></svg>